<svg xmlns="http://www.w3.org/2000/svg" viewBox="0 0 270.35 270.35"><defs><style>.cls-1{fill:#fff;}.cls-2{fill:#fefefe;}.cls-3{fill:#5cb747;}</style></defs><title>play-bg</title><g id="Layer_2" data-name="Layer 2"><g id="Layer_1-2" data-name="Layer 1"><circle class="cls-1" cx="135.18" cy="135.18" r="135.18"/><path class="cls-2" d="M36.05,132a87.34,87.34,0,0,1,1.08-14.39c4.51-23.69,15.38-43.75,34.19-59.2,23.84-19.58,51.17-26.69,81.35-21.35,24,4.25,44.24,16.06,59.48,35.2,19.21,24.12,26.53,51.64,20.61,82.15C226.5,186.73,208.34,210.32,179,225c-19,9.5-39.27,12.08-60.32,8.52a108.85,108.85,0,0,1-25.37-7.81c-5-2.15-10-.34-11.92,4.07-2,4.61-.2,9.37,4.75,11.69A111.74,111.74,0,0,0,126,252a117.43,117.43,0,0,0,37-2.85c27-6.86,49.22-21.06,65.89-43.53a115.05,115.05,0,0,0,22-55,114.6,114.6,0,0,0-1.2-37.79c-6.07-29.45-21.19-53.43-45.25-71.52-19.64-14.77-42-22.15-66.49-23.14a109.6,109.6,0,0,0-29.53,3C81.08,27.5,58.76,41.86,41.89,64.33a115.75,115.75,0,0,0-23,60.36,113,113,0,0,0,3,38.32c1.44,5.66,5.64,8,10.88,6.58,4.19-1.15,7.4-6.88,6.2-11.34C36.82,150.29,36.05,142.18,36.05,132Zm99.56,88.73c4.19-.44,8.39-.14,12.64-.77a81.57,81.57,0,0,0,52-29c16.74-20,23.3-43.27,19-69.29-3.74-22.72-14.8-41.12-33.21-54.8C166.25,52.1,144,46.74,119.5,51.08a81.24,81.24,0,0,0-49,28c-16.62,19.61-23.14,42.52-19.92,68.11A9,9,0,0,0,59.86,155c4.5-.34,7.76-4.05,8-8.74.09-2.18-.71-4.17-.79-6.28-.75-20,5-37.74,19.13-52.24,16.4-16.84,36.57-23.42,59.64-19.88a65,65,0,0,1,40.37,22.53c15,17.44,20.15,37.47,15.52,59.86-3.18,15.33-11.18,28-23.22,38a64.72,64.72,0,0,1-35.67,15,67.45,67.45,0,0,1-30.42-3.64,6.56,6.56,0,0,0-4.69-.41c-4,1.34-6.8,4.54-6.91,8.25-.12,3.89,2.29,7.22,6.42,8.63C116.4,219.2,125.81,221.14,135.61,220.74Z"/><path class="cls-3" d="M36.05,132c0,10.17.77,18.28,2.91,26.24,1.2,4.46-2,10.19-6.2,11.34-5.24,1.44-9.44-.92-10.88-6.58a113,113,0,0,1-3-38.32,115.75,115.75,0,0,1,23-60.36C58.76,41.86,81.08,27.5,108.47,21.1a109.6,109.6,0,0,1,29.53-3c24.49,1,46.85,8.37,66.49,23.14,24.06,18.09,39.18,42.07,45.25,71.52a114.6,114.6,0,0,1,1.2,37.79,115.05,115.05,0,0,1-22,55c-16.67,22.47-38.85,36.67-65.89,43.53A117.43,117.43,0,0,1,126,252a111.74,111.74,0,0,1-39.87-10.53c-5-2.32-6.79-7.08-4.75-11.69,2-4.41,7-6.22,11.92-4.07a108.85,108.85,0,0,0,25.37,7.81c21,3.56,41.29,1,60.32-8.52,29.34-14.65,47.5-38.24,53.76-70.55,5.92-30.51-1.4-58-20.61-82.15-15.24-19.14-35.47-30.95-59.48-35.2-30.18-5.34-57.51,1.77-81.35,21.35-18.81,15.45-29.68,35.51-34.19,59.2A87.34,87.34,0,0,0,36.05,132Z"/><path class="cls-3" d="M135.61,220.74c-9.8.4-19.21-1.54-28.41-4.68-4.13-1.41-6.54-4.74-6.42-8.63.11-3.71,2.92-6.91,6.91-8.25a6.56,6.56,0,0,1,4.69.41,67.45,67.45,0,0,0,30.42,3.64,64.72,64.72,0,0,0,35.67-15c12-10,20-22.67,23.22-38,4.63-22.39-.57-42.42-15.52-59.86A65,65,0,0,0,145.8,67.82c-23.07-3.54-43.24,3-59.64,19.88C72,102.2,66.28,119.91,67,139.94c.08,2.11.88,4.1.79,6.28-.2,4.69-3.46,8.4-8,8.74a9,9,0,0,1-9.33-7.79c-3.22-25.59,3.3-48.5,19.92-68.11a81.24,81.24,0,0,1,49.05-28c24.48-4.34,46.75,1,66.59,15.76,18.41,13.68,29.47,32.08,33.21,54.8,4.29,26-2.27,49.3-19,69.29a81.57,81.57,0,0,1-52,29C144,220.6,139.8,220.3,135.61,220.74Z"/></g></g></svg>