<?xml version="1.0" standalone="no"?>
<!DOCTYPE svg PUBLIC "-//W3C//DTD SVG 20010904//EN"
 "http://www.w3.org/TR/2001/REC-SVG-20010904/DTD/svg10.dtd">
<svg version="1.0" xmlns="http://www.w3.org/2000/svg"
 width="738.000000pt" height="738.000000pt" viewBox="0 0 738.000000 738.000000"
 preserveAspectRatio="xMidYMid meet">
<metadata>
Created by potrace 1.11, written by Peter Selinger 2001-2013
</metadata>
<g transform="translate(0.000000,738.000000) scale(0.100000,-0.100000)"
fill="#000000" stroke="none">
<path d="M3350 6780 c-671 -64 -1294 -327 -1785 -754 -685 -597 -1085 -1469
-1085 -2367 0 -206 5 -230 62 -295 110 -125 309 -85 382 77 22 50 24 69 30
274 3 121 12 266 20 323 134 898 679 1643 1485 2029 247 118 506 196 801 240
174 26 548 24 735 -5 591 -91 1110 -350 1519 -757 327 -326 566 -727 694
-1165 196 -673 123 -1398 -204 -2020 -335 -637 -924 -1119 -1608 -1316 -265
-77 -476 -106 -756 -106 -555 0 -1049 150 -1511 458 -166 111 -192 124 -252
124 -130 0 -227 -97 -227 -226 0 -105 40 -155 220 -275 425 -283 815 -432
1350 -516 93 -15 174 -18 430 -17 278 0 331 3 450 22 352 59 606 137 895 276
382 184 702 423 970 726 418 472 680 1029 776 1650 30 190 38 610 16 800 -67
570 -268 1087 -601 1540 -174 237 -411 478 -643 651 -444 332 -960 541 -1518
615 -136 17 -517 26 -645 14z"/>
<path d="M3390 5928 c-335 -31 -740 -175 -1021 -361 -556 -368 -923 -945
-1019 -1600 -28 -185 -26 -250 6 -315 37 -74 98 -115 180 -120 75 -5 124 10
170 51 55 47 74 95 84 210 24 277 122 574 262 801 195 315 456 551 781 706
507 241 1085 238 1592 -10 589 -287 973 -846 1037 -1504 26 -278 -24 -601
-137 -876 -143 -347 -417 -665 -742 -861 -535 -323 -1197 -354 -1747 -82 -50
24 -119 61 -155 81 -58 32 -74 37 -132 37 -56 0 -73 -5 -115 -30 -30 -19 -60
-49 -79 -79 -25 -42 -30 -59 -30 -115 0 -128 54 -182 310 -306 327 -159 633
-229 1000 -229 222 0 350 15 545 64 190 48 441 146 560 219 28 17 53 31 56 31
8 0 153 99 244 167 109 82 270 241 373 368 567 701 673 1674 270 2479 -121
242 -262 434 -459 626 -130 126 -316 271 -435 338 -212 119 -501 230 -708 272
-223 45 -473 59 -691 38z"/>
<path d="M3725 5125 c-165 -81 -308 -156 -317 -168 -27 -34 -22 -59 32 -167
28 -55 50 -104 50 -109 0 -5 -9 -12 -20 -16 -11 -3 -324 -157 -695 -341 -742
-367 -738 -365 -793 -482 -23 -49 -27 -70 -27 -153 l0 -95 310 -629 c342 -692
346 -699 460 -752 68 -31 183 -43 245 -24 20 6 306 144 636 307 329 163 802
397 1050 519 249 122 472 237 498 254 110 76 171 245 135 375 -6 21 -147 314
-314 651 -332 674 -341 688 -454 741 -85 41 -197 44 -283 9 -15 -6 -26 11 -67
98 -50 108 -68 127 -118 127 -16 0 -160 -64 -328 -145z m108 -810 c222 -64
387 -203 492 -413 55 -110 76 -206 76 -342 0 -361 -217 -650 -572 -762 -62
-19 -96 -23 -209 -23 -160 0 -222 14 -355 79 -206 102 -358 289 -416 513 -26
105 -26 272 1 379 79 309 325 537 642 593 88 16 242 5 341 -24z"/>
<path d="M3482 4155 c-213 -47 -403 -231 -458 -446 -48 -184 0 -393 125 -543
212 -256 604 -289 860 -73 144 122 216 282 214 477 -1 280 -204 526 -482 585
-87 18 -174 18 -259 0z m548 -351 c0 -5 -432 -630 -472 -683 l-18 -24 -170
348 c-93 191 -170 349 -170 351 0 2 111 5 248 7 136 1 322 3 415 5 92 1 167
-1 167 -4z"/>
<path d="M5920 1165 c0 -24 3 -25 60 -25 l60 0 2 -162 c3 -160 3 -163 26 -166
l22 -3 0 165 0 166 65 0 c63 0 65 1 65 25 l0 25 -150 0 -150 0 0 -25z"/>
<path d="M6262 1003 c3 -175 4 -188 22 -188 17 0 18 10 17 150 -1 87 3 144 8
135 4 -8 27 -71 51 -140 23 -69 49 -132 57 -140 25 -27 46 3 94 144 26 76 50
141 53 144 3 3 6 -63 6 -146 0 -145 1 -152 20 -152 19 0 20 7 20 190 l0 190
-34 0 -34 0 -52 -155 c-28 -85 -53 -155 -55 -155 -2 0 -27 70 -55 155 l-52
155 -34 0 -34 0 2 -187z"/>
</g>
</svg>
